<svg width="316" height="255" viewBox="0 0 316 255" fill="none" xmlns="http://www.w3.org/2000/svg">
<g clip-path="url(#clip0_5_202)">
<path d="M71.1272 128.968C67.1063 128.698 65.2335 129.479 64.0242 130.274C63.636 130.529 63.253 130.828 62.891 131.151C64.7186 127.453 66.5906 123.77 68.4982 120.114C68.5106 120.605 68.598 120.837 68.8143 120.954C69.3089 121.22 70.4629 120.368 72.7507 118.651C74.4898 117.347 74.7119 117.016 74.8412 116.79C75.2958 115.993 75.2572 115.336 74.9769 112.474C74.474 107.337 74.3444 106.855 74.5883 105.642C74.6722 105.224 74.9014 104.217 74.7387 104.16C74.5715 104.1 74.3117 105.156 73.3866 105.845C72.4849 106.517 71.8504 106.17 71.031 106.602C69.9718 107.161 69.6803 108.453 69.2418 110.534C68.8536 112.376 68.9526 113.027 68.7212 116.498C68.6556 117.482 68.5933 118.247 68.5509 118.849C66.8429 122.107 65.1669 125.388 63.5211 128.682C63.5435 128.592 63.5644 128.507 63.5825 128.433C64.0917 126.35 63.922 125.389 63.6661 124.714C63.2514 123.62 62.4274 122.965 60.7962 121.7C59.1977 120.46 57.8456 119.746 56.2208 118.898C54.0909 117.787 53.026 117.231 52.7371 117.394C52.0117 117.802 52.1195 119.939 52.7255 122.613C51.3462 121.903 50.6136 121.571 50.3819 121.701C50.2822 121.757 50.1987 121.847 50.1295 121.965C49.0984 121.915 47.7316 121.973 46.1677 122.178C47.4016 121.733 48.7883 121.146 50.2821 120.345C51.5769 119.651 52.2231 119.298 52.1611 119.006C51.9393 117.962 43.0978 117.983 35.5185 121.951C31.9502 123.82 30.7635 125.462 30.1499 126.771C29.9529 127.192 29.7832 127.646 29.6441 128.111C29.2619 124.004 28.9263 119.889 28.6345 115.777C28.9026 116.189 29.0993 116.342 29.3446 116.328C29.9059 116.297 30.4422 114.968 31.4921 112.312C32.2901 110.293 32.306 109.895 32.2974 109.634C32.267 108.718 31.8897 108.179 30.1499 105.886C27.0273 101.77 26.664 101.426 26.2356 100.265C26.0881 99.8654 25.7556 98.8879 25.5866 98.9237C25.413 98.9603 25.7454 99.9959 25.3182 101.066C24.9019 102.109 24.1793 102.144 23.7076 102.94C23.098 103.969 23.5273 105.223 24.2445 107.224C24.8796 108.997 25.3058 109.501 26.9288 112.58C27.3885 113.452 27.7367 114.136 28.0163 114.672C28.2691 118.339 28.5615 122.011 28.8864 125.677C28.858 125.588 28.8312 125.505 28.8078 125.432C28.1497 123.392 27.501 122.661 26.9288 122.219C26.0018 121.503 24.9561 121.375 22.9023 121.148C20.8899 120.926 19.3632 121.023 17.5338 121.148C15.1358 121.312 13.9368 121.395 13.7758 121.684C13.3338 122.477 14.8273 124.513 17.0591 126.69C15.2372 126.819 14.3085 126.914 14.1683 127.165C13.8016 127.824 14.77 129.339 16.3836 131.079C15.262 131.175 14.6704 131.276 14.5608 131.473C13.3296 133.683 27.0868 145.526 30.1297 143.254C30.3608 143.082 30.5244 142.828 30.6371 142.52C30.687 142.937 30.7379 143.355 30.7887 143.773C27.1941 143.369 20.2887 144.45 16.1916 148.728C14.1549 150.854 13.8479 152.69 13.7758 153.28C13.4557 155.896 14.7316 158.679 15.7902 158.884C16.1027 160.831 17.0821 162.441 17.8858 162.427C18.8936 162.41 18.7152 159.856 21.107 157.072C22.7759 155.129 24.7605 154.164 25.9387 153.591C28.4694 152.36 29.9398 152.396 31.7628 151.393C31.7994 151.663 31.8384 151.933 31.8754 152.203C28.5361 152.762 24.7229 154.191 22.0795 156.951C20.0428 159.077 19.7358 160.913 19.6637 161.503C19.4665 163.114 19.8768 164.787 20.4673 165.886C18.8609 167.569 18.4168 169.326 17.5338 172.827C16.9696 175.063 17.0929 175.857 17.5338 176.308C17.8984 176.681 18.4745 176.814 20.7549 176.576C23.2287 176.317 24.4656 176.188 25.5867 175.772C27.3599 175.115 28.5825 173.986 30.9552 171.756C31.9309 170.839 32.7559 170.059 33.4285 169.38C33.7784 169.499 34.1068 169.589 34.4384 169.655C34.4769 169.662 34.5149 169.668 34.5533 169.675C35.1652 173.292 35.8117 176.899 36.492 180.49C34.2788 180.983 32.3878 182.436 31.3488 184.527L23.1375 201.052C22.6191 202.095 22.3451 203.262 22.3451 204.426V246.918C22.3451 251.107 25.7619 254.516 29.9618 254.516H49.1281C53.328 254.516 56.7448 251.107 56.7448 246.918V207.791C56.7448 206.838 56.5677 205.904 56.2183 205.016L48.3925 185.126C47.261 182.25 44.5569 180.378 41.4737 180.31C43.0724 176.103 44.7217 171.901 46.4287 167.716C46.6918 167.614 46.9246 167.509 47.1268 167.396C47.4417 167.741 48.0871 168.143 49.4553 168.795C51.6992 169.866 52.8212 170.401 53.9945 170.632C55.8504 170.997 57.4842 170.673 60.6762 170.01C65.0194 169.108 67.2003 168.632 67.6546 167.371C68.2833 165.627 66.3111 163.379 65.7676 162.76C64.5862 161.414 63.2821 160.8 62.4764 160.431C61.4301 159.951 58.4481 158.585 54.8433 159.527C52.5744 160.12 51.2749 161.387 48.6759 163.92C48.4257 164.164 48.2096 164.385 48.0178 164.592C47.9746 164.468 47.9258 164.345 47.8723 164.224C48.2368 163.347 48.6013 162.471 48.9702 161.596C51.6354 159.074 52.9469 157.685 52.698 156.493C52.5811 155.934 52.2277 155.463 51.7728 155.072C52.2783 153.914 52.785 152.757 53.2978 151.603C53.5336 151.598 53.7768 151.587 54.0387 151.562C55.412 151.433 56.9668 151.287 57.1327 150.629C57.2204 150.281 56.9183 149.772 56.3246 149.199C57.1825 148.96 58.4893 147.218 61.4225 146.275C63.8635 145.491 66.0611 145.704 67.3659 145.83C70.7328 146.156 71.8314 147.246 74.8586 146.962C76.2318 146.832 77.7867 146.686 77.9525 146.028C78.027 145.733 77.8188 145.321 77.3928 144.853C78.1557 144.958 78.9719 145.042 79.8419 145.092C81.3094 145.176 82.0452 145.212 82.1454 144.931C82.5038 143.925 74.9575 139.33 66.4169 138.757C64.3434 138.618 62.8441 138.759 61.7095 139.037C64.4393 138.02 68.5022 136.475 72.9625 137.726C74.4981 138.157 77.6056 139.347 82.1971 139.61C83.6646 139.694 84.4004 139.73 84.5005 139.449C84.8588 138.444 77.3189 133.852 68.7828 133.276C70.764 132.876 72.9864 132.765 75.3177 133.419C76.8533 133.849 79.9608 135.04 84.5522 135.303C86.0197 135.387 86.7556 135.423 86.8557 135.142C87.2142 134.137 79.6678 129.541 71.1272 128.968ZM31.6734 146.574C31.789 146.484 31.9024 146.393 32.0117 146.302C32.2076 146.589 32.4145 146.81 32.6215 146.95C32.6435 147.065 32.6672 147.179 32.6936 147.291C32.402 147.259 32.0896 147.238 31.7588 147.227C31.731 147.01 31.701 146.792 31.6734 146.574ZM48.5411 131.507C48.5744 131.698 48.6105 131.892 48.6504 132.091C48.2855 132.021 47.8676 131.972 47.4105 131.942C47.775 131.81 48.1513 131.666 48.5411 131.507ZM49.4102 135.109C49.13 135.081 48.8304 135.063 48.5152 135.053C48.7617 134.866 49.0052 134.676 49.2308 134.487C49.2885 134.693 49.3482 134.901 49.4102 135.109ZM42.9483 141.314C45.8386 139.96 47.3354 140.249 49.7048 138.472C49.9253 138.307 50.1514 138.137 50.3708 137.966C51.1571 140.058 52.0982 142.053 53.0676 143.498C50.3528 142.131 46.6231 141.02 42.9483 141.314ZM49.9059 124.064C49.9931 125.205 50.2738 126.656 50.6917 128.215C50.6679 128.214 50.6443 128.214 50.6202 128.214C49.583 127.694 49.0116 127.462 48.8118 127.574C48.6039 127.691 48.4645 127.951 48.3856 128.324C45.1259 128.634 40.7322 129.627 36.6961 131.74C33.1277 133.609 31.9411 135.251 31.3275 136.56C31.0659 137.118 30.8522 137.737 30.6952 138.358C30.6147 137.637 30.5319 136.918 30.4541 136.196C32.2083 135.515 34.8604 128.939 41.4239 127.082C42.9104 126.661 46.03 126.074 49.9059 124.064ZM30.8112 147.224C30.8596 147.189 30.9061 147.158 30.9552 147.121C31.0301 147.065 31.1056 147.009 31.1814 146.952C31.1927 147.041 31.205 147.13 31.2164 147.219C31.0832 147.219 30.9489 147.22 30.8112 147.224ZM32.265 151.094C32.4767 150.96 32.6923 150.815 32.9179 150.645C33.2574 150.391 33.6104 150.126 33.9309 149.862C34.1791 150.112 34.4336 150.258 34.6728 150.254C34.7663 150.252 34.8473 150.222 34.9234 150.178C34.7177 150.792 34.5965 151.394 34.5579 151.929C33.8826 151.952 33.1605 152.013 32.4058 152.12C32.3589 151.778 32.3112 151.436 32.265 151.094ZM40.9021 180.304H38.173C37.7822 180.304 37.3973 180.335 37.0197 180.392C36.3508 176.86 35.7147 173.315 35.112 169.758C36.7169 169.935 38.3182 169.615 41.1201 169.033C43.1054 168.621 44.634 168.297 45.7573 167.947C44.086 172.054 42.4689 176.176 40.9021 180.304ZM47.2916 163.174C47.516 162.965 47.7536 162.742 48.0013 162.509C47.8499 162.87 47.7026 163.233 47.552 163.594C47.4681 163.449 47.3808 163.309 47.2916 163.174ZM48.6715 153.548C46.9586 153.017 45.5254 153.174 44.6451 153.28C43.5414 153.413 40.4683 153.789 37.937 156.23C37.0921 156.208 36.1355 156.254 35.1161 156.382C35.6589 156.134 36.2206 155.811 36.8431 155.344C37.9458 154.517 39.1942 153.581 38.9906 152.934C38.8965 152.635 38.4833 152.387 37.8444 152.21C38.564 151.734 39.4579 151.244 40.6027 150.876C43.0437 150.091 45.2413 150.304 46.546 150.43C49.3705 150.704 50.6023 151.512 52.7117 151.599C52.248 152.643 51.7904 153.691 51.3326 154.739C50.3533 154.072 49.1428 153.694 48.6715 153.548ZM54.8824 148.07C54.901 148.029 54.9192 147.988 54.9377 147.947C55.0838 147.93 55.228 147.912 55.3686 147.891C55.3786 148.103 55.4059 148.294 55.4482 148.464C55.2723 148.333 55.0812 148.202 54.8824 148.07ZM59.3139 140.063C59.3008 140.072 59.2879 140.082 59.2749 140.09C59.3061 139.979 59.3353 139.871 59.3636 139.766C59.6042 139.733 59.879 139.665 60.1857 139.572C59.8571 139.728 59.5693 139.895 59.3139 140.063Z" fill="#F2F2F2"/>
<path d="M94.6667 250.932L100.654 250.932L103.502 227.896L94.6655 227.897L94.6667 250.932Z" fill="#FFCCCC"/>
<path d="M115.178 250.797C115.365 251.11 115.463 252.121 115.463 252.485C115.463 253.604 114.553 254.512 113.431 254.512H94.8907C94.1251 254.512 93.5044 253.893 93.5044 253.129V252.359C93.5044 252.359 92.5873 250.045 94.4756 247.192C94.4756 247.192 96.8225 249.426 100.329 245.928L101.364 244.059L108.849 249.52L112.999 250.03C113.907 250.141 114.711 250.012 115.178 250.797Z" fill="#262D3F"/>
<path d="M127.639 250.932L133.626 250.932L136.474 227.896L127.638 227.897L127.639 250.932Z" fill="#FFCCCC"/>
<path d="M148.151 250.797C148.337 251.11 148.436 252.121 148.436 252.485C148.436 253.604 147.526 254.512 146.404 254.512H127.863C127.097 254.512 126.477 253.893 126.477 253.129V252.359C126.477 252.359 125.56 250.045 127.448 247.192C127.448 247.192 129.795 249.426 133.302 245.928L134.336 244.059L141.822 249.52L145.971 250.03C146.879 250.141 147.684 250.012 148.151 250.797Z" fill="#262D3F"/>
<path d="M125.234 67.562C125.234 67.562 132.129 64.4296 136.532 67.562C140.935 70.6945 144.86 98.8866 140.15 103.585C135.44 108.284 127.589 97.7119 127.589 97.7119L125.234 67.562Z" fill="#FFCCCC"/>
<path d="M99.1734 67.9351C99.1734 67.9351 92.2779 64.8026 87.8751 67.9351C83.4723 71.0675 79.547 99.2596 84.2573 103.958C88.9677 108.657 96.8182 98.0849 96.8182 98.0849L99.1734 67.9351Z" fill="#FFCCCC"/>
<path d="M99.3696 102.588C99.3696 102.588 97.0144 113.16 94.2668 117.859L114.286 129.605L129.987 119.425C129.987 119.425 122.529 107.287 123.706 103.763L99.3696 102.588Z" fill="#FFCCCC"/>
<path d="M235.762 249.758L228.074 249.758L224.416 220.176L235.764 220.176L235.762 249.758Z" fill="#FFCCCC"/>
<path d="M209.421 249.584C209.182 249.987 209.055 251.285 209.055 251.752C209.055 253.19 210.224 254.355 211.665 254.355H235.475C236.458 254.355 237.255 253.56 237.255 252.58V251.591C237.255 251.591 238.433 248.619 236.008 244.956C236.008 244.956 232.994 247.824 228.49 243.331L227.162 240.931L217.549 247.945L212.22 248.599C211.054 248.742 210.021 248.577 209.421 249.584Z" fill="#262D3F"/>
<path d="M259.528 249.758L251.839 249.758L248.182 220.176L259.529 220.176L259.528 249.758Z" fill="#FFCCCC"/>
<path d="M233.186 249.584C232.947 249.987 232.821 251.285 232.821 251.752C232.821 253.19 233.989 254.355 235.43 254.355H259.24C260.223 254.355 261.02 253.56 261.02 252.58V251.591C261.02 251.591 262.198 248.619 259.773 244.956C259.773 244.956 256.759 247.824 252.256 243.331L250.928 240.931L241.314 247.945L235.986 248.599C234.82 248.742 233.786 248.577 233.186 249.584Z" fill="#262D3F"/>
<path d="M219.767 79.1077C219.767 79.1077 218.654 86.2574 219.943 90.8709L201.007 124.367L208.373 129.723L232.973 98.8485L236.382 83.5939L219.767 79.1077Z" fill="#FFCCCC"/>
<path d="M207.243 134.595C209.852 129.979 209.651 124.934 206.793 123.326C203.934 121.718 199.502 124.157 196.892 128.773C194.283 133.389 194.484 138.434 197.342 140.042C200.201 141.65 204.633 139.211 207.243 134.595Z" fill="#FFCCCC"/>
<path d="M227.155 113.187C227.155 113.187 218.101 119.561 221.213 129.074L218.667 161.165L224.325 227.205H236.513L238.472 179.792L246.393 149.876L247.42 227.205L262.52 226.923C262.52 226.923 263.369 188.259 262.237 186.001C261.105 183.743 262.237 185.554 262.237 185.554L271.573 140.274L270.159 109.236L227.155 113.187Z" fill="#262D3F"/>
<path d="M249.505 34.4473L233.096 40.6562L234.794 45.1717L221.213 55.3318L230.267 86.9407L225.174 115.163L239.886 114.599L271.573 111.776L268.178 77.3451L268.744 44.0428L256.296 39.5273L249.505 34.4473Z" fill="#51B3DD"/>
<path d="M225.457 54.4851L221.213 55.3317C221.213 55.3317 219.233 56.7428 219.233 61.8228C219.233 66.9028 219.233 70.2895 219.799 73.1117C219.799 73.1117 216.404 82.1429 217.535 84.4007C218.667 86.6584 232.813 86.6584 232.813 86.6584L225.457 54.4851Z" fill="#51B3DD"/>
<path d="M248.842 21.3494C248.842 28.4555 243.067 34.2161 235.943 34.2161C228.819 34.2161 223.044 28.4555 223.044 21.3494C223.044 14.2434 228.819 8.48276 235.943 8.48276C243.067 8.48276 248.842 14.2434 248.842 21.3494Z" fill="#FFCCCC"/>
<path d="M244.004 30.3089C244.004 30.3089 246.289 21.5518 243.854 23.0959L240.075 22.7377L242.461 16.3712C242.461 16.3712 238.19 13.1771 236.487 15.0442C234.784 16.9113 235.192 17.9642 233.644 15.5354C232.096 13.1066 228.861 13.1525 225.899 14.9002C222.936 16.6479 220.621 16.9355 221.184 13.6926C221.747 10.4496 221.431 4.93909 223.19 5.56403C224.949 6.18897 224.467 6.54171 225.415 4.27708C226.364 2.01246 226.483 0.755984 228.679 1.72479C230.874 2.69359 236.392 -1.85472 238.671 0.897031C240.951 3.64879 242.943 4.09112 244.934 4.53345C246.925 4.97579 254.926 3.7057 254.257 16.0669C254.257 16.0669 259.598 26.7158 249.978 31.6359C249.978 31.6359 247.367 29.0659 245.545 32.1895L244.004 30.3089Z" fill="#262D3F"/>
<path d="M120.174 57.9504L107.613 58.3419L100.94 66.5646L93.4817 68.1309C93.4817 68.1309 91.1265 90.058 94.6593 97.8892C98.192 105.72 96.6219 108.07 96.6219 108.07L124.884 107.678C124.884 107.678 124.099 102.36 128.809 97.7751L131.171 89.0548C132.434 84.3925 132.004 79.4349 129.957 75.0585L124.884 64.2153L120.566 62.6491L120.174 57.9504Z" fill="#262D3F"/>
<path d="M96.6219 112.768L94.8555 115.705C94.8555 115.705 89.3602 123.145 88.5751 144.289C87.79 165.433 94.2667 233.852 94.2667 233.852H103.23L112.92 141.284L125.865 233.955L137.445 234.151L136.463 139.59C136.463 139.59 134.108 118.054 127.828 113.356C127.828 113.356 107.613 131.563 96.6219 112.768Z" fill="#262D3F"/>
<path d="M80.2745 66.3818C80.2745 70.4468 80.0291 73.4715 75.5791 73.7422C71.3995 73.9964 70.8836 70.4468 70.8836 66.3818C70.8836 62.3168 70.9809 59.0543 75.5791 59.0214C80.8141 58.9839 80.2745 62.3168 80.2745 66.3818Z" fill="#51B3DD"/>
<path d="M106.435 66.3818C106.435 70.4468 107.506 73.4715 101.74 73.7421C97.3035 73.9504 97.0441 70.4468 97.0441 66.3818C97.0441 62.3167 97.6958 59.4775 101.74 59.0214C105.543 58.5924 106.435 62.3167 106.435 66.3818Z" fill="#51B3DD"/>
<path d="M102.41 63.0361H76.2498V69.0583H102.41V63.0361Z" fill="#51B3DD"/>
<path d="M125.415 65.2071C125.415 69.2721 125.17 72.2968 120.72 72.5675C116.54 72.8217 116.024 69.2721 116.024 65.2071C116.024 61.1421 116.122 57.8796 120.72 57.8467C125.955 57.8092 125.415 61.1421 125.415 65.2071Z" fill="#51B3DD"/>
<path d="M151.576 65.2071C151.576 69.2721 152.647 72.2968 146.88 72.5675C142.444 72.7757 142.185 69.2721 142.185 65.2071C142.185 61.1421 142.836 58.3028 146.88 57.8467C150.684 57.4177 151.576 61.1421 151.576 65.2071Z" fill="#51B3DD"/>
<path d="M147.551 61.8615H121.39V67.8836H147.551V61.8615Z" fill="#51B3DD"/>
<path d="M193.715 129.422C193.715 133.487 193.469 136.512 189.019 136.783C184.84 137.037 184.324 133.487 184.324 129.422C184.324 125.357 184.421 122.095 189.019 122.062C194.254 122.025 193.715 125.357 193.715 129.422Z" fill="#51B3DD"/>
<path d="M219.875 129.422C219.875 133.487 220.946 136.512 215.18 136.783C210.744 136.991 210.484 133.487 210.484 129.422C210.484 125.357 211.136 122.518 215.18 122.062C218.984 121.633 219.875 125.357 219.875 129.422Z" fill="#51B3DD"/>
<path d="M215.851 126.077H189.69V132.099H215.851V126.077Z" fill="#51B3DD"/>
<path d="M134.672 74.4559C137.488 74.4559 139.771 70.7683 139.771 66.2194C139.771 61.6704 137.488 57.9828 134.672 57.9828C131.855 57.9828 129.572 61.6704 129.572 66.2194C129.572 70.7683 131.855 74.4559 134.672 74.4559Z" fill="#FFCCCC"/>
<path d="M110.557 53.2517C118.253 53.2517 124.491 47.0283 124.491 39.3514C124.491 31.6745 118.253 25.4512 110.557 25.4512C102.861 25.4512 96.6219 31.6745 96.6219 39.3514C96.6219 47.0283 102.861 53.2517 110.557 53.2517Z" fill="#FFCCCC"/>
<path d="M107.759 43.7192L110.983 38.601L112.435 31.6405C112.435 31.6405 127.122 35.2139 123.182 28.067C119.241 20.9202 109.211 19.1335 102.405 24.4936L99.4711 27.3524C99.4711 27.3524 105.987 21.2775 102.046 19.1335C98.1058 16.9894 98.8223 15.5601 96.6729 17.3468C94.5236 19.1335 95.5982 20.5629 93.0907 19.4908C90.5831 18.4188 85.2096 16.9894 85.9261 18.7761C86.6425 20.5629 81.2381 25.2083 83.2239 27.3524C85.2096 29.4964 83.4185 33.7845 87.0008 32.7125C90.5831 31.6405 88.7919 37.0006 92.016 34.8565C92.016 34.8565 89.3697 38.2205 91.5191 40.7219C93.6684 43.2233 96.9801 44.1965 96.6219 47.7699C96.2637 51.3433 104.865 52.077 104.865 52.077L104.196 41.646C104.196 41.646 106.326 39.9038 107.759 43.7192Z" fill="#262D3F"/>
<path d="M249.628 67.7046C249.628 67.7046 247.574 74.6437 248.238 79.3871L225.015 110.082L231.604 116.365L260.092 89.0185L265.5 74.3498L249.628 67.7046Z" fill="#FFCCCC"/>
<path d="M229.835 121.044C233.036 116.814 233.507 111.787 230.888 109.815C228.269 107.843 223.551 109.674 220.351 113.904C217.15 118.134 216.679 123.161 219.298 125.133C221.917 127.105 226.635 125.274 229.835 121.044Z" fill="#FFCCCC"/>
<path d="M266.458 42.1884C266.458 42.1884 273.693 44.8067 272.773 49.7711C271.852 54.7354 271.503 58.0082 271.503 58.0082C271.503 58.0082 272.287 60.7199 271.264 62.0715C270.242 63.4231 264.991 79.2709 264.991 79.2709L246.108 72.8331C246.108 72.8331 257.178 42.2734 266.458 42.1884Z" fill="#51B3DD"/>
<path d="M316 254.671C316 254.853 315.852 255 315.67 255H0.329735C0.147629 255 0 254.853 0 254.671C0 254.489 0.147626 254.342 0.329735 254.342H315.67C315.852 254.342 316 254.489 316 254.671Z" fill="#E6E6E6"/>
<path d="M94.8356 66.5924C94.8356 71.1413 92.5523 74.829 89.7357 74.829C86.9191 74.829 84.6358 71.1413 84.6358 66.5924C84.6358 62.0434 86.9191 58.3558 89.7357 58.3558C92.5523 58.3558 94.8356 62.0434 94.8356 66.5924Z" fill="#FFCCCC"/>
</g>
<defs>
<clipPath id="clip0_5_202">
<rect width="316" height="255" fill="white"/>
</clipPath>
</defs>
</svg>